<svg xmlns="http://www.w3.org/2000/svg" viewBox="0 0 192 192" id="svg3055"><path style="color:#000000;fill:#000000;fill-opacity:1;fill-rule:nonzero;stroke:none;stroke-width:0.498;marker:none;visibility:visible;display:inline;overflow:visible;enable-background:accumulate" d="M95.97 0C42.963 0 0 42.964 0 95.97c0 53.004 42.964 95.968 95.97 95.968 53.004 0 95.968-42.964 95.968-95.97C191.938 42.965 148.974 0 95.968 0zM17.093 48.594H40.72l18.436 42.312L77.72 48.594h23.468l-31.22 62.78v40H48.313v-39.31l-31.218-63.47zm97.03 0h28.564c6.61 0 12.28.75 17.062 2.25 4.828 1.453 8.813 3.547 11.906 6.312 3.14 2.72 5.438 6.078 6.938 10.063 1.5 3.936 2.25 8.42 2.25 13.436 0 4.5-.672 8.813-2.03 12.938-1.36 4.125-3.61 7.734-6.75 10.875-3.095 3.14-7.205 5.655-12.314 7.53-5.063 1.875-11.344 2.813-18.844 2.813h-4.97v36.562h-21.81V48.595zm21.814 17.843V96.97h4.28c6.14 0 10.75-1.22 13.845-3.657 3.14-2.438 4.718-6.422 4.718-11.907 0-5.11-1.405-8.875-4.218-11.312-2.765-2.438-7.14-3.656-13.093-3.656h-5.532z" id="path3225"/></svg>
